<?xml version="1.0" encoding="UTF-8"?>
<svg id="Layer_1" data-name="Layer 1" xmlns="http://www.w3.org/2000/svg" viewBox="0 0 320 320">
  <defs>
    <style>
      .cls-1 {
        fill: #fff;
      }
    </style>
  </defs>
  <rect class="cls-1" x="279.81" y="19" width="20" height="20"/>
  <rect class="cls-1" x="279.81" y="-1" width="20" height="20"/>
  <rect class="cls-1" x="19.81" y="0" width="20" height="19"/>
  <rect class="cls-1" x="279.81" y="39" width="20" height="20"/>
  <rect class="cls-1" x="259.81" y="19" width="20" height="20"/>
  <rect class="cls-1" x="259.81" y="-1" width="20" height="20"/>
  <rect class="cls-1" x="259.81" y="39" width="20" height="20"/>
  <rect class="cls-1" x="279.81" y="59" width="20" height="20"/>
  <rect class="cls-1" x="279.81" y="79" width="20" height="20"/>
  <rect class="cls-1" x="279.81" y="99" width="20" height="20"/>
  <rect class="cls-1" x="279.81" y="119" width="20" height="20"/>
  <rect class="cls-1" x="279.81" y="139" width="20" height="20"/>
  <rect class="cls-1" x="279.81" y="159" width="20" height="20"/>
  <rect class="cls-1" x="279.81" y="179" width="20" height="20"/>
  <rect class="cls-1" x="279.81" y="199" width="20" height="20"/>
  <rect class="cls-1" x="279.81" y="219" width="20" height="20"/>
  <rect class="cls-1" x="279.81" y="239" width="20" height="20"/>
  <rect class="cls-1" x="19.81" y="19" width="20" height="20"/>
  <rect class="cls-1" x="19.81" y="39" width="20" height="20"/>
  <rect class="cls-1" x="19.81" y="59" width="20" height="20"/>
  <rect class="cls-1" x="19.81" y="79" width="20" height="20"/>
  <rect class="cls-1" x="19.81" y="99" width="20" height="20"/>
  <rect class="cls-1" x="19.81" y="119" width="20" height="20"/>
  <rect class="cls-1" x="19.81" y="139" width="20" height="20"/>
  <rect class="cls-1" x="19.81" y="159" width="20" height="20"/>
  <rect class="cls-1" x="19.81" y="179" width="20" height="20"/>
  <rect class="cls-1" x="19.81" y="199" width="20" height="20"/>
  <rect class="cls-1" x="19.81" y="219" width="20" height="20"/>
  <rect class="cls-1" x="19.81" y="239" width="20" height="20"/>
  <rect class="cls-1" x="259.81" y="219" width="20" height="20"/>
  <rect class="cls-1" x="259.81" y="199" width="20" height="20"/>
  <rect class="cls-1" x="239.81" y="179" width="20" height="20"/>
  <rect class="cls-1" x="239.81" y="159" width="20" height="20"/>
  <rect class="cls-1" x="219.81" y="138.99" width="20" height="20"/>
  <rect class="cls-1" x="219.81" y="119" width="20" height="20"/>
  <rect class="cls-1" x="199.81" y="99" width="20" height="20"/>
  <rect class="cls-1" x="199.81" y="79" width="20" height="20"/>
  <g>
    <rect class="cls-1" x="179.81" y="59" width="20" height="20"/>
    <rect class="cls-1" x="179.81" y="39" width="20" height="20"/>
  </g>
  <g>
    <rect class="cls-1" x="239.81" y="78.87" width="20" height="20"/>
    <rect class="cls-1" x="239.81" y="58.87" width="20" height="20"/>
  </g>
  <rect class="cls-1" x="119.81" y="39.01" width="20" height="20"/>
  <rect class="cls-1" x="119.81" y="59" width="20" height="20"/>
  <rect class="cls-1" x="39.81" y="-.63" width="20" height="20"/>
  <rect class="cls-1" x="39.81" y="19.13" width="20" height="20"/>
  <rect class="cls-1" x="39.81" y="39.13" width="20" height="20"/>
  <rect class="cls-1" x="59.81" y="58.88" width="20" height="20"/>
  <rect class="cls-1" x="59.81" y="78.87" width="20" height="20"/>
  <rect class="cls-1" x="139.81" y="279" width="20" height="20"/>
  <rect class="cls-1" x="139.81" y="299" width="20" height="21"/>
  <rect class="cls-1" x="79.81" y="99.25" width="20" height="20"/>
  <rect class="cls-1" x="79.81" y="119.01" width="20" height="20"/>
  <rect class="cls-1" x="79.81" y="139" width="20" height="20"/>
  <rect class="cls-1" x="99.81" y="159.12" width="20" height="20"/>
  <rect class="cls-1" x="99.81" y="178.88" width="20" height="20"/>
  <rect class="cls-1" x="99.81" y="198.87" width="20" height="20"/>
  <rect class="cls-1" x="119.81" y="219.12" width="20" height="20"/>
  <rect class="cls-1" x="119.81" y="238.88" width="20" height="20"/>
  <rect class="cls-1" x="119.81" y="258.88" width="20" height="20"/>
  <rect class="cls-1" x="139.81" y="0" width="20" height="19.5"/>
  <rect class="cls-1" x="139.81" y="19.5" width="20" height="19.5"/>
  <rect class="cls-1" x="159.81" y="0" width="20" height="19.5"/>
  <rect class="cls-1" x="159.81" y="19.5" width="20" height="19.5"/>
  <rect class="cls-1" x="99.81" y="79.01" width="20" height="20"/>
  <rect class="cls-1" x="99.81" y="99" width="20" height="20"/>
  <rect class="cls-1" x="79.81" y="119.01" width="20" height="20"/>
  <rect class="cls-1" x="79.81" y="139" width="20" height="20"/>
  <rect class="cls-1" x="59.81" y="159.01" width="20" height="20"/>
  <rect class="cls-1" x="59.81" y="179" width="20" height="20"/>
  <rect class="cls-1" x="39.81" y="199.01" width="20" height="20"/>
  <rect class="cls-1" x="39.81" y="219" width="20" height="20"/>
  <rect class="cls-1" x="159.78" y="278.88" width="20" height="20"/>
  <rect class="cls-1" x="159.78" y="298.87" width="20" height="21"/>
  <rect class="cls-1" x="219.78" y="99.12" width="20" height="20"/>
  <rect class="cls-1" x="219.78" y="118.88" width="20" height="20"/>
  <rect class="cls-1" x="219.78" y="138.88" width="20" height="20"/>
  <rect class="cls-1" x="199.78" y="158.99" width="20" height="20"/>
  <rect class="cls-1" x="199.78" y="178.75" width="20" height="20"/>
  <rect class="cls-1" x="199.78" y="198.74" width="20" height="20"/>
  <rect class="cls-1" x="179.78" y="219" width="20" height="20"/>
  <rect class="cls-1" x="179.78" y="238.75" width="20" height="20"/>
  <rect class="cls-1" x="179.78" y="258.75" width="20" height="20"/>
  <rect class="cls-1" x="219.78" y="118.88" width="20" height="20"/>
  <rect class="cls-1" x="219.78" y="138.88" width="20" height="20"/>
</svg>